# xmcd CD database file
#
# Track frame offsets:
#	150
#	13972
#	24441
#	35980
#	47980
#	61537
#	74013
#	86054
#	99043
#	108192
#	118998
#	131421
#	142872
#	155877
#	167665
#	188986
#
# Disc length: 2711 seconds
#
# Revision: 2
# Processed by: cddbd v1.5.2PL0 Copyright (c) Steve Scherf et al.
# Submitted via: CDex 1.51
#
DISCID=df0a9510
DTITLE=Engelbert Humperdinck - The Last Waltz
DYEAR=1967
DGENRE=Classic Pop
TTITLE0=The last waltz
TTITLE1=Dance with me
TTITLE2=Two different worlds
TTITLE3=If it comes to that
TTITLE4=Walk hand in hand
TTITLE5=A place in the sun
TTITLE6=Long gone
TTITLE7=All this world and the seven seas
TTITLE8=Miss Elaine E.S. Jones
TTITLE9=Everybody knows (we're through)
TTITLE10=Nature boy
TTITLE11=To the ends of the earth
TTITLE12=That promise
TTITLE13=Three little words (I love you)
TTITLE14=Those were the days
TTITLE15=What now my love
EXTD=YEAR: 1967
EXTT0=
EXTT1=
EXTT2=
EXTT3=
EXTT4=
EXTT5=
EXTT6=
EXTT7=
EXTT8=
EXTT9=
EXTT10=
EXTT11=
EXTT12=
EXTT13=
EXTT14=
EXTT15=
PLAYORDER=
